<svg width="493" height="124" viewBox="0 0 493 124" fill="none" xmlns="http://www.w3.org/2000/svg">
<path d="M133.659 49H129.227L142.045 14.0909H146.409L159.227 49H154.795L144.364 19.6136H144.091L133.659 49ZM135.295 35.3636H153.159V39.1136H135.295V35.3636ZM164.665 49V14.0909H176.46C179.188 14.0909 181.426 14.5568 183.176 15.4886C184.926 16.4091 186.222 17.6761 187.062 19.2898C187.903 20.9034 188.324 22.7386 188.324 24.7955C188.324 26.8523 187.903 28.6761 187.062 30.267C186.222 31.858 184.932 33.108 183.193 34.017C181.455 34.9148 179.233 35.3636 176.528 35.3636H166.983V31.5455H176.392C178.256 31.5455 179.756 31.2727 180.892 30.7273C182.04 30.1818 182.869 29.4091 183.381 28.4091C183.903 27.3977 184.165 26.1932 184.165 24.7955C184.165 23.3977 183.903 22.1761 183.381 21.1307C182.858 20.0852 182.023 19.2784 180.875 18.7102C179.727 18.1307 178.21 17.8409 176.324 17.8409H168.892V49H164.665ZM181.097 33.3182L189.688 49H184.778L176.324 33.3182H181.097ZM193.459 17.8409V14.0909H219.641V17.8409H208.663V49H204.436V17.8409H193.459ZM226.165 49V14.0909H247.097V17.8409H230.392V29.6364H245.528V33.3864H230.392V49H226.165ZM277.246 14.0909H281.473V37.2045C281.473 39.5909 280.911 41.7216 279.786 43.5966C278.672 45.4602 277.098 46.9318 275.064 48.0114C273.03 49.0795 270.643 49.6136 267.905 49.6136C265.166 49.6136 262.78 49.0795 260.746 48.0114C258.712 46.9318 257.132 45.4602 256.007 43.5966C254.893 41.7216 254.337 39.5909 254.337 37.2045V14.0909H258.564V36.8636C258.564 38.5682 258.939 40.0852 259.689 41.4148C260.439 42.733 261.507 43.7727 262.893 44.5341C264.291 45.2841 265.962 45.6591 267.905 45.6591C269.848 45.6591 271.518 45.2841 272.916 44.5341C274.314 43.7727 275.382 42.733 276.121 41.4148C276.871 40.0852 277.246 38.5682 277.246 36.8636V14.0909ZM289.915 49V14.0909H294.142V45.25H310.369V49H289.915ZM126.676 114V67.4545H142.404C146.04 67.4545 149.025 68.0758 151.358 69.3182C153.692 70.5455 155.419 72.2348 156.54 74.3864C157.661 76.5379 158.222 78.9848 158.222 81.7273C158.222 84.4697 157.661 86.9015 156.54 89.0227C155.419 91.1439 153.699 92.8106 151.381 94.0227C149.063 95.2197 146.101 95.8182 142.495 95.8182H129.767V90.7273H142.313C144.798 90.7273 146.798 90.3636 148.313 89.6364C149.843 88.9091 150.949 87.8788 151.631 86.5455C152.328 85.197 152.676 83.5909 152.676 81.7273C152.676 79.8636 152.328 78.2348 151.631 76.8409C150.934 75.447 149.82 74.3712 148.29 73.6136C146.76 72.8409 144.737 72.4545 142.222 72.4545H132.313V114H126.676ZM148.585 93.0909L160.04 114H153.495L142.222 93.0909H148.585ZM206.887 90.7273C206.887 95.6364 206 99.8788 204.228 103.455C202.455 107.03 200.023 109.788 196.932 111.727C193.841 113.667 190.311 114.636 186.341 114.636C182.371 114.636 178.841 113.667 175.75 111.727C172.659 109.788 170.228 107.03 168.455 103.455C166.682 99.8788 165.796 95.6364 165.796 90.7273C165.796 85.8182 166.682 81.5758 168.455 78C170.228 74.4242 172.659 71.6667 175.75 69.7273C178.841 67.7879 182.371 66.8182 186.341 66.8182C190.311 66.8182 193.841 67.7879 196.932 69.7273C200.023 71.6667 202.455 74.4242 204.228 78C206 81.5758 206.887 85.8182 206.887 90.7273ZM201.432 90.7273C201.432 86.697 200.758 83.2955 199.409 80.5227C198.076 77.75 196.265 75.6515 193.978 74.2273C191.705 72.803 189.159 72.0909 186.341 72.0909C183.523 72.0909 180.97 72.803 178.682 74.2273C176.409 75.6515 174.599 77.75 173.25 80.5227C171.917 83.2955 171.25 86.697 171.25 90.7273C171.25 94.7576 171.917 98.1591 173.25 100.932C174.599 103.705 176.409 105.803 178.682 107.227C180.97 108.652 183.523 109.364 186.341 109.364C189.159 109.364 191.705 108.652 193.978 107.227C196.265 105.803 198.076 103.705 199.409 100.932C200.758 98.1591 201.432 94.7576 201.432 90.7273ZM207.884 67.4545H214.338L227.247 89.1818H227.793L240.702 67.4545H247.157L230.338 94.8182V114H224.702V94.8182L207.884 67.4545ZM250.595 114H244.686L261.777 67.4545H267.595L284.686 114H278.777L264.868 74.8182H264.505L250.595 114ZM252.777 95.8182H276.595V100.818H252.777V95.8182ZM291.936 114V67.4545H297.573V109H319.209V114H291.936ZM317.071 72.4545V67.4545H351.98V72.4545H337.344V114H331.707V72.4545H317.071ZM366.315 67.4545V114H360.679V67.4545H366.315ZM377.616 114V67.4545H405.707V72.4545H383.253V88.1818H404.253V93.1818H383.253V109H406.071V114H377.616ZM439.401 79.0909C439.128 76.7879 438.022 75 436.083 73.7273C434.143 72.4545 431.765 71.8182 428.946 71.8182C426.886 71.8182 425.083 72.1515 423.537 72.8182C422.007 73.4848 420.81 74.4015 419.946 75.5682C419.098 76.7348 418.674 78.0606 418.674 79.5455C418.674 80.7879 418.969 81.8561 419.56 82.75C420.166 83.6288 420.939 84.3636 421.878 84.9545C422.818 85.5303 423.802 86.0076 424.833 86.3864C425.863 86.75 426.81 87.0455 427.674 87.2727L432.401 88.5455C433.613 88.8636 434.962 89.303 436.446 89.8636C437.946 90.4242 439.378 91.1894 440.742 92.1591C442.121 93.1136 443.257 94.3409 444.151 95.8409C445.045 97.3409 445.492 99.1818 445.492 101.364C445.492 103.879 444.833 106.152 443.515 108.182C442.212 110.212 440.302 111.826 437.787 113.023C435.287 114.22 432.249 114.818 428.674 114.818C425.34 114.818 422.454 114.28 420.015 113.205C417.59 112.129 415.681 110.629 414.287 108.705C412.908 106.78 412.128 104.545 411.946 102H417.765C417.916 103.758 418.507 105.212 419.537 106.364C420.583 107.5 421.901 108.348 423.492 108.909C425.098 109.455 426.825 109.727 428.674 109.727C430.825 109.727 432.757 109.379 434.469 108.682C436.181 107.97 437.537 106.985 438.537 105.727C439.537 104.455 440.037 102.97 440.037 101.273C440.037 99.7273 439.605 98.4697 438.742 97.5C437.878 96.5303 436.742 95.7424 435.333 95.1364C433.924 94.5303 432.401 94 430.765 93.5455L425.037 91.9091C421.401 90.8636 418.522 89.3712 416.401 87.4318C414.28 85.4924 413.219 82.9545 413.219 79.8182C413.219 77.2121 413.924 74.9394 415.333 73C416.757 71.0455 418.666 69.5303 421.06 68.4545C423.469 67.3636 426.158 66.8182 429.128 66.8182C432.128 66.8182 434.795 67.3561 437.128 68.4318C439.462 69.4924 441.31 70.947 442.674 72.7955C444.052 74.6439 444.78 76.7424 444.855 79.0909H439.401Z" fill="black"/>
<path fill-rule="evenodd" clip-rule="evenodd" d="M51.5884 3.47604C49.7951 -1.15867 43.2357 -1.15869 41.4424 3.47603L32.12 27.5703C32.0861 27.6455 32.0539 27.7224 32.0234 27.8011L0.0862393 110.284C-0.233704 111.11 0.376171 112 1.26247 112H6.00998C6.53073 112 6.99794 111.68 7.18607 111.195L36.5333 35.4687C36.9495 34.3947 38.4697 34.3949 38.8856 35.4691L68.2063 111.194C68.3943 111.68 68.8616 112 69.3825 112H70.6504C71.5367 112 72.1466 111.11 71.8267 110.284L39.8895 27.8011C39.5476 26.9183 38.9828 26.2524 38.3045 25.8035C37.6708 25.3841 37.2406 24.6057 37.5148 23.897L40.014 17.4375C40.4038 16.4299 41.8298 16.4299 42.2197 17.4375L78.4943 111.194C78.6822 111.68 79.1496 112 79.6706 112H80.9384C81.8246 112 82.4345 111.11 82.1148 110.284L45.6752 16.1012C45.1878 14.8416 44.3086 13.9629 43.2746 13.4653C42.5335 13.1086 42.0128 12.2692 42.3095 11.5022L44.8979 4.81227C45.4697 3.33455 47.5611 3.33454 48.1329 4.81228L89.2934 111.194C89.4813 111.68 89.9487 112 90.4697 112H91.7375C92.6237 112 93.2336 111.11 92.9139 110.284L51.5884 3.47604Z" fill="black"/>
<path d="M73 111C73 112.657 71.6569 114 70 114C68.3431 114 67 112.657 67 111C67 109.343 68.3431 108 70 108C71.6569 108 73 109.343 73 111Z" fill="black"/>
<path d="M83 111C83 112.657 81.6569 114 80 114C78.3431 114 77 112.657 77 111C77 109.343 78.3431 108 80 108C81.6569 108 83 109.343 83 111Z" fill="black"/>
<path d="M94 111C94 112.657 92.6569 114 91 114C89.3431 114 88 112.657 88 111C88 109.343 89.3431 108 91 108C92.6569 108 94 109.343 94 111Z" fill="black"/>
<path d="M463.244 67H459.92L469.534 40.8182H472.807L482.42 67H479.097L471.273 44.9602H471.068L463.244 67ZM464.472 56.7727H477.869V59.5852H464.472V56.7727ZM489.669 40.8182V67H486.499V40.8182H489.669Z" fill="black"/>
</svg>
